<?xml version="1.0" standalone="no"?>
<!DOCTYPE svg PUBLIC "-//W3C//DTD SVG 20010904//EN"
 "http://www.w3.org/TR/2001/REC-SVG-20010904/DTD/svg10.dtd">
<svg version="1.0" xmlns="http://www.w3.org/2000/svg"
 width="1242.000000pt" height="304.000000pt" viewBox="0 0 1242.000000 304.000000"
 preserveAspectRatio="xMidYMid meet">
<metadata>
Created by potrace 1.16, written by Peter Selinger 2001-2019
</metadata>
<g transform="translate(0.000000,304.000000) scale(0.100000,-0.100000)"
fill="#000000" stroke="none">
<path d="M176 2965 c-58 -21 -88 -46 -114 -95 l-22 -44 0 -1125 0 -1125 21
-44 c15 -29 37 -54 67 -73 l46 -29 798 0 c764 0 800 1 836 19 46 23 66 45 89
96 17 38 18 108 21 1124 2 715 -1 1103 -8 1140 -12 65 -48 115 -106 145 -38
21 -52 21 -814 23 -647 2 -781 0 -814 -12z m1094 -543 c0 -4 -61 -131 -135
-281 -74 -150 -135 -275 -135 -277 0 -2 63 -4 140 -4 77 0 140 -2 140 -5 0 -3
-121 -199 -270 -437 -148 -238 -270 -428 -270 -423 0 6 145 533 186 678 5 16
-6 17 -125 17 -76 0 -131 4 -131 9 0 10 275 704 285 721 7 12 315 14 315 2z"/>
<path d="M3762 2909 c-148 -19 -267 -74 -361 -168 -99 -99 -152 -231 -166
-413 l-7 -78 -114 0 -114 0 2 -202 3 -203 113 -3 112 -3 0 -549 0 -550 275 0
275 0 0 550 0 550 180 0 180 0 0 205 0 205 -185 0 -185 0 0 48 c1 85 34 148
94 179 42 22 140 19 203 -5 l51 -19 66 187 c36 102 66 190 66 194 0 17 -112
56 -200 71 -102 16 -187 17 -288 4z"/>
<path d="M4350 1815 l0 -1075 275 0 275 0 0 1075 0 1075 -275 0 -275 0 0
-1075z"/>
<path d="M8670 1815 l0 -1075 270 0 270 0 0 363 c0 514 11 584 100 681 52 56
126 86 213 86 90 0 133 -15 181 -64 79 -79 79 -79 84 -603 l3 -463 276 0 275
0 -5 528 c-4 498 -5 531 -25 609 -60 229 -201 376 -422 439 -90 25 -299 26
-390 1 -87 -24 -184 -70 -236 -112 -23 -19 -45 -35 -48 -35 -3 0 -6 162 -6
360 l0 360 -270 0 -270 0 0 -1075z"/>
<path d="M2008 1709 c2 -1121 2 -1162 -17 -1204 -27 -60 -84 -120 -144 -149
l-51 -26 -638 0 -638 0 0 -29 c0 -72 55 -163 128 -210 89 -57 114 -58 517 -17
198 19 524 52 725 71 216 21 382 42 407 51 59 22 128 86 158 149 21 42 27 68
26 117 -1 124 -210 2197 -225 2232 -33 80 -156 176 -226 176 l-25 0 3 -1161z"/>
<path d="M5790 2334 c-14 -2 -70 -11 -125 -20 -123 -20 -253 -62 -356 -115
l-78 -41 91 -181 c49 -100 91 -183 92 -184 1 -2 42 18 92 42 128 65 194 80
344 79 108 0 132 -3 177 -23 67 -30 118 -85 137 -152 9 -29 16 -56 16 -60 0
-3 -116 -9 -257 -12 -297 -6 -395 -22 -518 -82 -89 -44 -164 -119 -203 -202
-25 -53 -27 -68 -27 -183 0 -119 2 -128 32 -192 57 -122 163 -211 308 -260 61
-20 89 -23 225 -23 170 0 219 9 313 58 54 28 110 80 149 137 16 24 17 22 17
-77 l1 -103 256 0 255 0 -4 513 c-4 575 -6 590 -76 732 -48 96 -85 143 -158
197 -136 100 -299 147 -533 153 -80 2 -156 2 -170 -1z m390 -1018 c0 -75 -10
-105 -51 -157 -45 -57 -127 -92 -214 -93 -88 0 -132 15 -175 59 -56 58 -52
153 8 208 39 35 100 46 270 46 l162 1 0 -64z"/>
<path d="M7581 2330 c-263 -34 -473 -157 -553 -326 -32 -66 -33 -74 -33 -194
0 -122 1 -128 33 -192 40 -83 109 -146 206 -192 87 -41 159 -59 346 -85 267
-38 330 -62 330 -125 0 -34 -23 -62 -68 -86 -36 -18 -236 -25 -333 -11 -100
15 -217 51 -318 97 -41 19 -75 33 -76 32 -9 -16 -155 -359 -155 -366 0 -27
200 -101 364 -135 96 -19 141 -22 331 -21 207 0 226 2 319 28 318 87 476 281
444 546 -21 180 -138 301 -346 359 -39 11 -156 34 -260 51 -227 39 -281 55
-301 92 -35 61 24 118 142 139 131 22 372 -18 500 -83 21 -10 43 -18 48 -16
10 3 172 358 167 363 -13 11 -96 47 -148 64 -161 53 -468 82 -639 61z"/>
<path d="M10480 2307 c0 -2 151 -361 335 -797 l335 -793 -25 -33 c-14 -18 -42
-46 -62 -61 -76 -58 -267 -36 -350 39 l-22 20 -96 -193 c-110 -219 -109 -195
-5 -249 229 -116 531 -112 748 12 110 62 208 182 287 352 24 50 193 451 375
891 183 440 334 803 337 808 2 4 -114 7 -259 7 l-264 0 -188 -467 c-104 -258
-192 -472 -196 -476 -4 -5 -93 205 -197 465 l-189 473 -282 3 c-155 1 -282 1
-282 -1z"/>
</g>
</svg>
