<svg xmlns="http://www.w3.org/2000/svg" xmlns:xlink="http://www.w3.org/1999/xlink" width="1920" zoomAndPan="magnify" viewBox="0 0 1440 809.999993" height="1080" preserveAspectRatio="xMidYMid meet" version="1.0"><defs><g/><clipPath id="14e4da31e6"><path d="M 283 319 L 448 319 L 448 533 L 283 533 Z M 283 319 " clip-rule="nonzero"/></clipPath><clipPath id="efc586cf5d"><path d="M 281.828125 332.035156 L 429.71875 317.519531 L 449.617188 520.292969 L 301.726562 534.804688 Z M 281.828125 332.035156 " clip-rule="nonzero"/></clipPath><clipPath id="82455678c1"><path d="M 304.222656 329.835938 L 407.328125 319.71875 C 419.691406 318.503906 430.703125 327.546875 431.917969 339.914062 L 447.40625 497.765625 C 448.621094 510.128906 439.578125 521.140625 427.210938 522.355469 L 324.105469 532.472656 C 311.738281 533.6875 300.730469 524.644531 299.515625 512.277344 L 284.027344 354.425781 C 282.8125 342.058594 291.855469 331.050781 304.222656 329.835938 Z M 304.222656 329.835938 " clip-rule="nonzero"/></clipPath><clipPath id="c3495ad068"><path d="M 256.214844 304.679688 L 412.195312 304.679688 L 412.195312 511.230469 L 256.214844 511.230469 Z M 256.214844 304.679688 " clip-rule="nonzero"/></clipPath><clipPath id="1a0ebff8a9"><path d="M 278.714844 304.679688 L 389.695312 304.679688 C 402.121094 304.679688 412.195312 314.75 412.195312 327.179688 L 412.195312 488.675781 C 412.195312 501.101562 402.121094 511.175781 389.695312 511.175781 L 278.714844 511.175781 C 266.289062 511.175781 256.214844 501.101562 256.214844 488.675781 L 256.214844 327.179688 C 256.214844 314.75 266.289062 304.679688 278.714844 304.679688 Z M 278.714844 304.679688 " clip-rule="nonzero"/></clipPath><clipPath id="8fab93d893"><path d="M 256.214844 304.679688 L 412.214844 304.679688 L 412.214844 511.679688 L 256.214844 511.679688 Z M 256.214844 304.679688 " clip-rule="nonzero"/></clipPath><clipPath id="1cd366162d"><path d="M 278.714844 304.679688 L 389.691406 304.679688 C 402.117188 304.679688 412.191406 314.753906 412.191406 327.179688 L 412.191406 488.671875 C 412.191406 501.097656 402.117188 511.171875 389.691406 511.171875 L 278.714844 511.171875 C 266.289062 511.171875 256.214844 501.097656 256.214844 488.671875 L 256.214844 327.179688 C 256.214844 314.753906 266.289062 304.679688 278.714844 304.679688 Z M 278.714844 304.679688 " clip-rule="nonzero"/></clipPath><clipPath id="d1f45f7224"><path d="M 310.925781 353 L 357.425781 353 L 357.425781 463 L 310.925781 463 Z M 310.925781 353 " clip-rule="nonzero"/></clipPath></defs><rect x="-144" width="1728" fill="#ffffff" y="-80.999999" height="971.999992" fill-opacity="1"/><g clip-path="url(#14e4da31e6)"><g clip-path="url(#efc586cf5d)"><g clip-path="url(#82455678c1)"><path fill="#ffffff" d="M 281.828125 332.035156 L 429.71875 317.519531 L 449.617188 520.292969 L 301.726562 534.804688 Z M 281.828125 332.035156 " fill-opacity="1" fill-rule="nonzero"/></g></g></g><g clip-path="url(#c3495ad068)"><g clip-path="url(#1a0ebff8a9)"><path fill="#ffffff" d="M 256.214844 304.679688 L 412.195312 304.679688 L 412.195312 511.230469 L 256.214844 511.230469 Z M 256.214844 304.679688 " fill-opacity="1" fill-rule="nonzero"/></g></g><g clip-path="url(#8fab93d893)"><g clip-path="url(#1cd366162d)"><path stroke-linecap="butt" transform="matrix(0.75, 0, 0, 0.75, 256.21394, 304.680269)" fill="none" stroke-linejoin="miter" d="M 30.001207 -0.000774896 L 177.969964 -0.000774896 C 194.537673 -0.000774896 207.969966 13.431517 207.969966 29.999227 L 207.969966 245.322154 C 207.969966 261.889863 194.537673 275.322156 177.969964 275.322156 L 30.001207 275.322156 C 13.433498 275.322156 0.00120536 261.889863 0.00120536 245.322154 L 0.00120536 29.999227 C 0.00120536 13.431517 13.433498 -0.000774896 30.001207 -0.000774896 Z M 30.001207 -0.000774896 " stroke="#ffffff" stroke-width="20" stroke-opacity="1" stroke-miterlimit="4"/></g></g><g clip-path="url(#d1f45f7224)"><path fill="#ffffff" d="M 357.484375 395.757812 L 335.671875 395.757812 L 356.644531 353.394531 L 332.738281 353.394531 L 310.925781 408.339844 L 331.058594 408.339844 L 315.957031 462.449219 Z M 357.484375 395.757812 " fill-opacity="1" fill-rule="nonzero"/></g><g fill="#ffffff" fill-opacity="1"><g transform="translate(485.442606, 479.927699)"><g><path d="M 58.3125 -113.578125 L 86.390625 -113.578125 L 86.390625 -82.6875 L 59.40625 -82.6875 L 59.40625 0 L 18.0625 0 L 18.0625 -82.6875 L 0.875 -82.6875 L 0.875 -113.578125 L 18.0625 -113.578125 L 18.0625 -116.625 C 18.0625 -130.988281 22.375 -142.375 31 -150.78125 C 39.632812 -159.195312 51.710938 -163.40625 67.234375 -163.40625 C 72.453125 -163.40625 77.523438 -162.894531 82.453125 -161.875 C 87.390625 -160.863281 91.457031 -159.34375 94.65625 -157.3125 L 84.421875 -128.15625 C 80.359375 -130.476562 76.226562 -131.640625 72.03125 -131.640625 C 67.675781 -131.640625 64.300781 -130.332031 61.90625 -127.71875 C 59.507812 -125.113281 58.3125 -121.269531 58.3125 -116.1875 Z M 58.3125 -113.578125 "/></g></g></g><g fill="#ffffff" fill-opacity="1"><g transform="translate(573.786276, 479.927699)"><g><path d="M 13.265625 -161.453125 L 54.609375 -161.453125 L 54.609375 0 L 13.265625 0 Z M 13.265625 -161.453125 "/></g></g></g><g fill="#ffffff" fill-opacity="1"><g transform="translate(641.893617, 479.927699)"><g><path d="M 63.53125 -119.890625 C 83.113281 -119.890625 98.054688 -115.425781 108.359375 -106.5 C 118.660156 -97.582031 123.8125 -83.914062 123.8125 -65.5 L 123.8125 0 L 85.296875 0 L 85.296875 -15.234375 C 79.347656 -3.773438 67.742188 1.953125 50.484375 1.953125 C 41.335938 1.953125 33.425781 0.359375 26.75 -2.828125 C 20.082031 -6.015625 15.046875 -10.328125 11.640625 -15.765625 C 8.234375 -21.210938 6.53125 -27.414062 6.53125 -34.375 C 6.53125 -45.550781 10.804688 -54.21875 19.359375 -60.375 C 27.921875 -66.539062 41.125 -69.625 58.96875 -69.625 L 82.46875 -69.625 C 81.738281 -82.101562 73.394531 -88.34375 57.4375 -88.34375 C 51.78125 -88.34375 46.050781 -87.4375 40.25 -85.625 C 34.445312 -83.8125 29.515625 -81.304688 25.453125 -78.109375 L 11.53125 -106.1875 C 18.0625 -110.539062 26.003906 -113.910156 35.359375 -116.296875 C 44.710938 -118.691406 54.101562 -119.890625 63.53125 -119.890625 Z M 62.015625 -24.15625 C 66.796875 -24.15625 71 -25.3125 74.625 -27.625 C 78.257812 -29.945312 80.875 -33.359375 82.46875 -37.859375 L 82.46875 -48.09375 L 64.625 -48.09375 C 52.582031 -48.09375 46.5625 -44.101562 46.5625 -36.125 C 46.5625 -32.5 47.9375 -29.597656 50.6875 -27.421875 C 53.445312 -25.242188 57.222656 -24.15625 62.015625 -24.15625 Z M 62.015625 -24.15625 "/></g></g></g><g fill="#ffffff" fill-opacity="1"><g transform="translate(778.543443, 479.927699)"><g><path d="M 56.140625 1.953125 C 46.273438 1.953125 36.554688 0.832031 26.984375 -1.40625 C 17.410156 -3.65625 9.722656 -6.597656 3.921875 -10.234375 L 16.3125 -38.515625 C 21.6875 -35.179688 28.070312 -32.535156 35.46875 -30.578125 C 42.863281 -28.617188 50.1875 -27.640625 57.4375 -27.640625 C 64.113281 -27.640625 68.863281 -28.328125 71.6875 -29.703125 C 74.519531 -31.078125 75.9375 -33.070312 75.9375 -35.6875 C 75.9375 -38.300781 74.234375 -40.148438 70.828125 -41.234375 C 67.421875 -42.316406 62.015625 -43.367188 54.609375 -44.390625 C 45.179688 -45.546875 37.164062 -47.066406 30.5625 -48.953125 C 23.96875 -50.835938 18.273438 -54.316406 13.484375 -59.390625 C 8.703125 -64.472656 6.3125 -71.585938 6.3125 -80.734375 C 6.3125 -88.273438 8.554688 -94.984375 13.046875 -100.859375 C 17.546875 -106.734375 24.109375 -111.375 32.734375 -114.78125 C 41.367188 -118.1875 51.707031 -119.890625 63.75 -119.890625 C 72.3125 -119.890625 80.796875 -119.019531 89.203125 -117.28125 C 97.617188 -115.539062 104.65625 -113.078125 110.3125 -109.890625 L 97.921875 -81.8125 C 87.472656 -87.613281 76.15625 -90.515625 63.96875 -90.515625 C 57.445312 -90.515625 52.660156 -89.753906 49.609375 -88.234375 C 46.566406 -86.710938 45.046875 -84.71875 45.046875 -82.25 C 45.046875 -79.488281 46.710938 -77.566406 50.046875 -76.484375 C 53.378906 -75.398438 58.890625 -74.273438 66.578125 -73.109375 C 76.296875 -71.660156 84.347656 -69.992188 90.734375 -68.109375 C 97.117188 -66.222656 102.664062 -62.773438 107.375 -57.765625 C 112.09375 -52.765625 114.453125 -45.765625 114.453125 -36.765625 C 114.453125 -29.367188 112.203125 -22.734375 107.703125 -16.859375 C 103.210938 -10.984375 96.578125 -6.378906 87.796875 -3.046875 C 79.023438 0.285156 68.472656 1.953125 56.140625 1.953125 Z M 56.140625 1.953125 "/></g></g></g><g fill="#ffffff" fill-opacity="1"><g transform="translate(897.568055, 479.927699)"><g><path d="M 90.078125 -119.890625 C 104.734375 -119.890625 116.519531 -115.535156 125.4375 -106.828125 C 134.363281 -98.128906 138.828125 -85.003906 138.828125 -67.453125 L 138.828125 0 L 97.484375 0 L 97.484375 -60.703125 C 97.484375 -76.804688 91.023438 -84.859375 78.109375 -84.859375 C 71.003906 -84.859375 65.3125 -82.535156 61.03125 -77.890625 C 56.75 -73.253906 54.609375 -66.296875 54.609375 -57.015625 L 54.609375 0 L 13.265625 0 L 13.265625 -161.453125 L 54.609375 -161.453125 L 54.609375 -107.0625 C 59.109375 -111.257812 64.40625 -114.445312 70.5 -116.625 C 76.59375 -118.800781 83.117188 -119.890625 90.078125 -119.890625 Z M 90.078125 -119.890625 "/></g></g></g><g fill="#ffffff" fill-opacity="1"><g transform="translate(1049.014391, 479.927699)"><g><path d="M 137.515625 -117.9375 L 86.609375 4.78125 C 80.660156 19.289062 73.40625 29.484375 64.84375 35.359375 C 56.28125 41.234375 45.835938 44.171875 33.515625 44.171875 C 27.273438 44.171875 21 43.191406 14.6875 41.234375 C 8.375 39.273438 3.257812 36.703125 -0.65625 33.515625 L 13.703125 4.5625 C 16.023438 6.738281 18.816406 8.441406 22.078125 9.671875 C 25.347656 10.910156 28.648438 11.53125 31.984375 11.53125 C 35.898438 11.53125 39.128906 10.734375 41.671875 9.140625 C 44.210938 7.546875 46.351562 5.003906 48.09375 1.515625 L -2.390625 -117.9375 L 40.03125 -117.9375 L 68.984375 -45.90625 L 98.140625 -117.9375 Z M 137.515625 -117.9375 "/></g></g></g></svg>